<?xml version="1.0" standalone="no"?>
<!DOCTYPE svg PUBLIC "-//W3C//DTD SVG 20010904//EN"
 "http://www.w3.org/TR/2001/REC-SVG-20010904/DTD/svg10.dtd">
<svg version="1.0" xmlns="http://www.w3.org/2000/svg"
 width="292.000000pt" height="292.000000pt" viewBox="0 0 292.000000 292.000000"
 preserveAspectRatio="xMidYMid meet">
<metadata>
Created by potrace 1.11, written by Peter Selinger 2001-2013
</metadata>
<g transform="translate(0.000000,292.000000) scale(0.100000,-0.100000)"
fill="#000000" stroke="none">
<path d="M50 2860 c-9 -6 -10 -10 -3 -10 6 0 15 5 18 10 8 12 4 12 -15 0z"/>
<path d="M2855 2860 c-3 -5 -1 -10 4 -10 6 0 11 5 11 10 0 6 -2 10 -4 10 -3 0
-8 -4 -11 -10z"/>
<path d="M336 2595 c-14 -15 -16 -99 -16 -850 l0 -834 22 -15 c28 -20 49 -20
74 -2 18 14 19 31 21 398 1 211 2 386 2 391 1 4 74 7 164 7 l162 0 88 -173
c319 -627 325 -637 357 -637 27 0 60 30 60 55 0 12 -23 67 -51 121 -164 317
-330 644 -327 645 2 0 12 2 23 4 130 19 243 91 298 193 38 70 57 154 57 252 0
197 -71 330 -215 400 -100 49 -172 59 -451 60 -219 0 -254 -2 -268 -15z m564
-109 c52 -10 134 -53 169 -88 58 -59 89 -156 85 -268 -4 -101 -30 -174 -83
-232 -35 -39 -123 -86 -172 -92 -19 -3 -34 -5 -34 -7 0 -5 -425 -6 -426 0 -3
19 -4 659 -1 676 3 20 9 21 215 19 117 -1 228 -4 247 -8z"/>
<path d="M1614 2596 c-19 -14 -19 -35 -20 -847 0 -793 0 -833 18 -851 23 -23
50 -23 77 0 21 17 21 17 24 720 l2 703 119 -233 c65 -128 175 -343 244 -478
298 -585 346 -676 370 -702 29 -31 49 -35 78 -14 18 14 19 36 20 848 0 909 3
868 -56 868 -60 0 -58 31 -56 -733 0 -383 -2 -697 -6 -697 -4 0 -59 102 -122
228 -425 846 -577 1141 -603 1170 -33 35 -58 40 -89 18z"/>
<path d="M243 593 l2 -188 1198 -3 1197 -2 0 190 0 190 -1199 0 -1200 0 2
-187z"/>
<path d="M1643 337 c-5 -7 -8 -37 -7 -67 3 -74 3 -72 14 -65 6 4 10 12 9 18
-4 33 2 49 16 43 8 -3 15 -2 15 3 0 5 -9 11 -19 14 -32 8 -16 47 20 47 16 0
29 3 29 8 0 12 -68 12 -77 -1z"/>
<path d="M1746 342 c-10 -10 -7 -132 4 -132 6 0 10 11 10 25 0 33 13 32 38 -2
23 -32 40 -26 20 6 -10 17 -10 25 0 41 14 24 16 47 2 55 -14 9 -67 14 -74 7z
m52 -20 c18 -12 4 -42 -19 -42 -14 0 -19 7 -19 25 0 25 14 31 38 17z"/>
<path d="M1878 343 c-10 -2 -19 -12 -20 -21 -7 -81 0 -107 32 -115 32 -8 50
18 50 73 0 39 -4 52 -19 60 -11 5 -21 9 -23 9 -2 -1 -11 -3 -20 -6z m40 -65
c2 -34 -1 -47 -13 -52 -25 -9 -42 63 -21 92 16 23 31 6 34 -40z"/>
<path d="M1979 349 c-1 -2 -2 -34 -3 -71 -1 -47 2 -68 10 -68 8 0 11 13 8 36
-3 31 -1 34 12 23 9 -7 20 -24 25 -37 15 -40 33 -20 34 39 1 30 -1 60 -3 66
-7 23 -20 4 -17 -27 3 -41 -10 -46 -25 -10 -11 26 -38 59 -41 49z"/>
<path d="M2090 338 c0 -4 7 -8 15 -8 15 0 20 -28 15 -92 -1 -14 3 -29 9 -33
10 -6 16 26 13 65 -3 30 9 60 23 60 8 0 15 3 15 8 0 4 -20 7 -45 8 -25 0 -45
-3 -45 -8z"/>
<path d="M2284 337 c-3 -8 -4 -41 -2 -73 l3 -59 32 -1 c18 0 38 3 45 8 14 8
11 9 -34 12 -31 1 -36 34 -7 44 l23 9 -22 5 c-14 4 -22 14 -22 27 0 18 6 21
37 21 45 0 36 12 -12 17 -24 2 -37 -1 -41 -10z"/>
<path d="M2396 343 c-10 -10 -7 -131 4 -138 6 -4 10 8 10 29 0 45 12 46 35 2
11 -19 23 -33 27 -30 12 7 10 132 -2 139 -6 4 -10 -8 -10 -29 0 -44 -13 -46
-30 -6 -14 33 -24 43 -34 33z"/>
<path d="M2517 342 c-3 -4 -4 -37 -4 -74 l0 -67 36 5 c20 3 39 11 43 18 10 15
10 88 -1 105 -9 14 -67 25 -74 13z m50 -20 c19 -12 14 -81 -7 -92 -11 -6 -21
-7 -23 -3 -3 7 -2 93 2 101 2 4 16 2 28 -6z"/>
<path d="M2196 252 c-3 -5 8 -9 24 -10 17 0 30 4 30 9 0 11 -47 12 -54 1z"/>
</g>
</svg>
